<?xml version="1.0" encoding="UTF-8"?>
<svg width="383px" height="383px" viewBox="0 0 383 383" version="1.1" xmlns="http://www.w3.org/2000/svg" xmlns:xlink="http://www.w3.org/1999/xlink">
    <!-- Generator: Sketch 54.1 (76490) - https://sketchapp.com -->
    <title>Group 4</title>
    <desc>Created with Sketch.</desc>
    <defs>
        <polygon id="path-1" points="0 0.163364516 17.2729297 0.163364516 17.2729297 26.8396548 0 26.8396548"></polygon>
        <polygon id="path-3" points="0 0.956787097 71.3199671 0.956787097 71.3199671 63.3621716 0 63.3621716"></polygon>
        <polygon id="path-5" points="0.529925517 0.398344737 56.2582529 0.398344737 56.2582529 48.9812921 0.529925517 48.9812921"></polygon>
    </defs>
    <g id="Page-1" stroke="none" stroke-width="1" fill="none" fill-rule="evenodd">
        <g id="Desktop-HD-Copy-64" transform="translate(-240.000000, -1398.000000)">
            <g id="Group" transform="translate(240.000000, 1398.000000)">
                <g id="Group-4">
                    <rect id="Rectangle-Copy-9" fill="#FFA080" x="0" y="0" width="383" height="383"></rect>
                    <g id="Group-20" transform="translate(122.000000, 142.000000)">
                        <g id="Group-3" transform="translate(0.000000, 71.854839)">
                            <mask id="mask-2" fill="white">
                                <use xlink:href="#path-1"></use>
                            </mask>
                            <g id="Clip-2"></g>
                            <path d="M13.4943665,19.1859532 C13.4943665,16.1555661 11.1807811,14.5638726 7.71103071,14.5638726 L3.70148555,14.5638726 L3.70148555,23.5069694 L7.71103071,23.5069694 C11.1807811,23.5069694 13.4943665,22.1805581 13.4943665,19.1859532 L13.4943665,19.1859532 Z M3.70148555,11.2274855 L7.17123596,11.2274855 C10.4100044,11.2274855 12.3369461,9.55929194 12.3369461,7.21246935 C12.3369461,4.82246129 10.4100044,3.49605 7.17123596,3.49605 L3.70148555,3.49605 L3.70148555,11.2274855 Z M17.2729297,19.1489371 C17.2729297,23.7352355 13.686433,26.8396548 8.24957011,26.8396548 L-0.000502134647,26.8396548 L-0.000502134647,0.163364516 L6.66910131,0.163364516 C12.530268,0.163364516 16.0376785,2.55090484 16.0376785,7.13473548 C16.0376785,9.63702581 14.5350406,11.5297839 12.7612499,12.5168806 C15.6133747,13.3497435 17.2729297,16.1913484 17.2729297,19.1489371 L17.2729297,19.1489371 Z" id="Fill-1" fill="#FFFFFF" mask="url(#mask-2)"></path>
                        </g>
                        <path d="M28.43804,74.6321327 C28.43804,73.0890521 29.7164611,71.8548387 31.3148125,71.8548387 C32.9105628,71.8548387 34.1889839,73.0890521 34.1889839,74.6321327 C34.1889839,76.1727022 32.9105628,77.4056601 31.3148125,77.4056601 C29.7164611,77.4056601 28.43804,76.1727022 28.43804,74.6321327 L28.43804,74.6321327 Z M39.9425287,95.6087382 L39.9425287,99 L23.9655172,99 L23.9655172,95.6087382 L30.0363915,95.6087382 L30.0363915,84.5033288 L24.6040775,84.5033288 L24.6040775,81.1083003 L33.870354,81.1083003 L33.870354,95.6087382 L39.9425287,95.6087382 Z" id="Fill-4" fill="#FFFFFF"></path>
                        <path d="M60.1437696,89.4180551 C60.1437696,86.1426208 58.1817987,83.3494033 55.1213283,83.3494033 C52.0621353,83.3494033 50.1014416,86.1426208 50.1014416,89.4180551 C50.1014416,92.6934893 52.0621353,95.4854071 55.1213283,95.4854071 C58.1817987,95.4854071 60.1437696,92.6934893 60.1437696,89.4180551 M63.908046,89.4180551 C63.908046,94.6873449 60.4579916,99 55.1213283,99 C49.7859424,99 46.3333333,94.6873449 46.3333333,89.4180551 C46.3333333,84.1487652 49.7859424,79.8387097 55.1213283,79.8387097 C60.4579916,79.8387097 63.908046,84.1487652 63.908046,89.4180551" id="Fill-6" fill="#FFFFFF"></path>
                        <path d="M87.8735632,88.7683072 L87.8735632,99 L84.0396007,99 L84.0396007,88.7683072 C84.0396007,85.3207291 83.0004772,83.4092268 80.0443724,83.4092268 C77.7281284,83.4092268 75.7305143,85.6036208 75.7305143,89.2574191 L75.7305143,99 L71.8965517,99 L71.8965517,80.1625811 L75.7305143,80.1625811 L75.7305143,82.7628059 C76.4900238,81.4210529 78.0870747,79.8387097 80.764866,79.8387097 C85.3180217,79.8387097 87.8735632,83.004718 87.8735632,88.7683072" id="Fill-8" fill="#FFFFFF"></path>
                        <path d="M95.862069,90.0676692 L95.862069,79.8387097 L99.6960315,79.8387097 L99.6960315,90.3914959 C99.6960315,93.5200587 100.736456,95.4260103 103.69126,95.4260103 C106.008804,95.4260103 108.005118,93.2358842 108.005118,89.2561197 L108.005118,79.8387097 L111.83908,79.8387097 L111.83908,98.6735298 L108.005118,98.6735298 L108.005118,96.077629 C107.246909,97.4152316 105.648557,99 102.973367,99 C98.418911,99 95.862069,95.831785 95.862069,90.0676692" id="Fill-10" fill="#FFFFFF"></path>
                        <path d="M137.402299,88.1218863 L137.402299,99 L133.50848,99 L133.50848,88.4457577 C133.50848,84.9968576 133.426588,83.4105487 131.397787,83.4105487 C129.695232,83.4105487 128.96349,85.6049428 128.96349,88.9335477 L128.96349,99 L125.069672,99 L125.069672,88.4457577 C125.069672,84.9968576 124.990422,83.4105487 122.9603,83.4105487 C121.255103,83.4105487 120.527323,85.6049428 120.527323,89.2574191 L120.527323,99 L116.632184,99 L116.632184,80.1625811 L120.527323,80.1625811 L120.527323,82.5975653 C121.136228,81.2994358 122.109683,79.8387097 124.33793,79.8387097 C125.880664,79.8387097 127.464344,80.8922832 127.990036,82.9240806 C129.046703,80.6913507 130.504904,79.8387097 132.453134,79.8387097 C135.778994,79.8387097 137.402299,82.3569752 137.402299,88.1218863" id="Fill-12" fill="#FFFFFF"></path>
                        <g id="Group-16">
                            <mask id="mask-4" fill="white">
                                <use xlink:href="#path-3"></use>
                            </mask>
                            <g id="Clip-15"></g>
                            <path d="M17.3680243,37.3603006 L17.3680243,49.6899523 L44.5975594,49.6899523 C47.4053765,49.6899523 49.4852411,49.0193071 50.8345853,47.6780168 C51.9014788,46.6139265 52.4368513,45.1896039 52.4368513,43.3999394 L52.4368513,43.0639781 C52.4368513,41.2743135 51.9014788,39.9317458 50.8345853,39.0375523 C49.5417312,37.9198103 47.4618667,37.3603006 44.5975594,37.3603006 L17.3680243,37.3603006 Z M17.3680243,13.9579781 L17.3680243,25.1136813 L43.2469313,25.1136813 C47.7995237,25.1136813 50.0771038,23.2959135 50.0771038,19.6629329 L50.0771038,19.495591 C50.0771038,17.8145071 49.5417312,16.4732168 48.4748377,15.4666103 C47.4053765,14.4600039 45.663169,13.9579781 43.2469313,13.9579781 L17.3680243,13.9579781 Z M-0.0001283867,0.956403871 L45.7774332,0.956403871 C53.8696469,0.956403871 59.8550348,2.55062323 63.7323131,5.73778452 C66.7121684,8.19937161 68.2014541,11.5244942 68.2014541,15.7208168 L68.2014541,16.6405587 C68.2014541,20.2211652 66.8790711,23.1835006 64.2394406,25.5313974 C62.0465958,27.4347523 59.5186616,28.5818748 56.6517866,28.9727652 C60.8102318,29.6996168 64.1547054,31.1545974 66.6826395,33.3351523 C69.7729073,36.1301458 71.3199671,39.8218877 71.3199671,44.4065458 L71.3199671,45.3275652 C71.3199671,47.6218103 70.9116974,49.8304684 70.0977257,51.9548168 C69.283754,54.0804426 68.0024547,55.9250361 66.262815,57.4911523 C61.9336155,61.4051652 55.1894621,63.3621716 46.0290711,63.3621716 L-0.0001283867,63.3621716 L-0.0001283867,0.956403871 Z" id="Fill-14" fill="#FFFFFF" mask="url(#mask-4)"></path>
                        </g>
                        <g id="Group-19" transform="translate(81.482759, 15.967742)">
                            <mask id="mask-6" fill="white">
                                <use xlink:href="#path-5"></use>
                            </mask>
                            <g id="Clip-18"></g>
                            <path d="M0.529925517,1.51079211 L16.7280589,1.51079211 L16.7280589,9.03609474 C18.3500451,6.92713421 20.4219439,5.15946316 22.9373646,3.73438421 C26.7986887,1.51079211 31.0230106,0.398344737 35.6116083,0.398344737 L36.45136,0.398344737 C42.829383,0.398344737 47.8372175,2.30930526 51.4735853,6.12862105 C53.0393324,7.78296316 54.2305784,9.66526579 55.0409324,11.7742263 C55.8525646,13.8844895 56.2590198,16.0221079 56.2590198,18.1883842 L56.2590198,48.9812921 L39.8921692,48.9812921 L39.8921692,24.2625553 C39.8921692,21.3537789 39.0536956,18.8722658 37.3754703,16.8206211 C35.4710106,14.5970289 32.591314,13.4845816 28.7299899,13.4845816 C24.9811439,13.4845816 22.0439301,14.6543447 19.9170703,16.9912658 C18.9098795,18.0177395 18.1557646,19.2317921 17.6521692,20.6269105 C17.1485738,22.0233316 16.8980543,23.4353842 16.8980543,24.8604632 L16.8980543,48.9812921 L0.529925517,48.9812921 L0.529925517,1.51079211 Z" id="Fill-17" fill="#FFFFFF" mask="url(#mask-6)"></path>
                        </g>
                    </g>
                </g>
            </g>
        </g>
    </g>
</svg>