<?xml version="1.0" encoding="UTF-8"?>
<svg width="79px" height="70px" viewBox="0 0 79 70" version="1.1" xmlns="http://www.w3.org/2000/svg" xmlns:xlink="http://www.w3.org/1999/xlink">
    <!-- Generator: Sketch 54.1 (76490) - https://sketchapp.com -->
    <title>Group 16</title>
    <desc>Created with Sketch.</desc>
    <defs>
        <polygon id="path-1" points="0 0.0882 30.1268 0.0882 30.1268 70 0 70"></polygon>
    </defs>
    <g id="Page-1" stroke="none" stroke-width="1" fill="none" fill-rule="evenodd">
        <g id="Desktop-HD-Copy-57" transform="translate(-21.000000, -721.000000)">
            <g id="Group-16" transform="translate(21.000000, 720.000000)">
                <polygon id="Fill-1" fill="#FEFEFE" points="31.8662 64.35 25.9972 62.53 25.9972 36.398 31.8662 38.016"></polygon>
                <polygon id="Fill-2" fill="#FEFEFE" points="16.4004 60.9632 13.6984 54.4612 25.9974 36.3982 29.9964 40.9692"></polygon>
                <polygon id="Fill-3" fill="#FEFEFE" points="49.3174 64.5316 43.4484 62.7126 43.4484 36.5796 49.3174 38.1986"></polygon>
                <polygon id="Fill-4" fill="#FEFEFE" points="31.8642 64.3509 28.9072 58.2279 43.4482 36.5799 47.4482 41.1509"></polygon>
                <polygon id="Fill-5" fill="#FEFEFE" points="66.7685 64.7171 60.8995 62.8971 60.8995 36.7651 66.7685 38.3831"></polygon>
                <polygon id="Fill-6" fill="#FEFEFE" points="49.3154 64.5355 46.3584 58.4125 60.8994 36.7645 64.8994 41.3365"></polygon>
                <polygon id="Fill-7" fill="#FEFEFE" points="63.8118 58.5938 66.7678 64.7178 78.4548 47.3188 78.3518 36.9468"></polygon>
                <g id="Group-15" transform="translate(0.000000, 0.912100)">
                    <path d="M33.2793,30.599 C33.2793,28.787 31.8093,27.317 29.9963,27.317 C28.1833,27.317 26.7143,28.787 26.7143,30.599 C26.7143,32.412 28.1833,33.882 29.9963,33.882 C31.8093,33.882 33.2793,32.412 33.2793,30.599" id="Fill-8" fill="#FEFEFE"></path>
                    <path d="M68.1816,30.599 C68.1816,28.787 66.7116,27.317 64.8996,27.317 C63.0856,27.317 61.6176,28.787 61.6176,30.599 C61.6176,32.412 63.0856,33.882 64.8996,33.882 C66.7116,33.882 68.1816,32.412 68.1816,30.599" id="Fill-10" fill="#FEFEFE"></path>
                    <g id="Group-14">
                        <mask id="mask-2" fill="white">
                            <use xlink:href="#path-1"></use>
                        </mask>
                        <g id="Clip-13"></g>
                        <path d="M22.1758,6.0882 C21.0078,6.0882 19.7578,6.8822 19.7398,9.1132 L19.6908,15.2342 C19.6808,16.5022 19.6698,17.7932 19.6578,19.2262 C22.3808,14.6332 24.1268,10.7752 24.1268,8.3692 C24.1268,6.3172 22.7698,6.0902 22.1868,6.0882 L22.1758,6.0882 Z M19.5678,70.0002 L13.5668,68.2182 C13.5668,63.8792 13.5568,61.3232 13.5458,56.9852 C13.5308,51.0482 13.5168,44.9702 13.5298,38.8922 C10.5718,42.9162 7.3068,47.2272 3.8098,51.8092 L-0.0002,46.9092 C4.6138,40.8652 9.0098,35.1072 13.5848,28.5382 C13.6328,22.2872 13.6618,18.6512 13.6908,15.1862 L13.7398,9.0672 C13.7858,3.2282 18.1158,0.0882 22.1788,0.0882 L22.2098,0.0882 C26.1448,0.1042 30.1268,2.9532 30.1268,8.3692 C30.1268,13.4002 26.1358,20.8522 19.5718,30.4242 C19.5708,30.5972 19.5688,30.7732 19.5678,30.9492 C19.5028,39.6242 19.5248,48.4422 19.5458,56.9712 C19.5568,61.3142 19.5678,65.6562 19.5678,70.0002 L19.5678,70.0002 Z" id="Fill-12" fill="#FEFEFE" mask="url(#mask-2)"></path>
                    </g>
                </g>
            </g>
        </g>
    </g>
</svg>